<?xml version="1.0" encoding="utf-8"?>
<!-- Generator: Adobe Illustrator 23.1.1, SVG Export Plug-In . SVG Version: 6.00 Build 0)  -->
<svg version="1.1" id="Layer_1" xmlns="http://www.w3.org/2000/svg" xmlns:xlink="http://www.w3.org/1999/xlink" x="0px" y="0px"
	 viewBox="0 0 195.85 35.32" style="enable-background:new 0 0 195.85 35.32;" xml:space="preserve">
<style type="text/css">
	.st0{fill:#5F5FFF;}
</style>
<path d="M53.02,23.32c-0.89-0.41-1.86-0.76-2.9-1.05c-1.04-0.29-2.01-0.49-2.9-0.61c-0.89-0.12-1.64-0.32-2.23-0.61
	c-0.59-0.29-0.89-0.67-0.89-1.15c0-0.4,0.24-0.73,0.72-1c0.48-0.26,1.16-0.4,2.04-0.4c1.85,0,2.91,0.53,3.16,1.58h5.92
	c-0.31-1.96-1.2-3.53-2.68-4.73c-1.48-1.2-3.61-1.8-6.41-1.8c-2.69,0-4.78,0.6-6.26,1.79c-1.49,1.19-2.23,2.71-2.23,4.55
	c0,1.36,0.3,2.52,0.89,3.46c0.59,0.94,1.33,1.61,2.23,2.02c0.89,0.41,1.86,0.75,2.9,1.04c1.04,0.29,2.01,0.5,2.9,0.62
	c0.89,0.12,1.64,0.33,2.24,0.62c0.6,0.29,0.9,0.67,0.9,1.15c-0.01,1.04-1.2,1.56-3.57,1.56c-0.91,0-1.68-0.2-2.29-0.59
	c-0.61-0.39-0.97-0.85-1.07-1.38h-5.92c0.32,2.06,1.23,3.73,2.73,5c1.5,1.27,3.68,1.91,6.55,1.91c3.29,0,5.67-0.61,7.12-1.83
	c1.45-1.22,2.18-2.78,2.18-4.67c0-1.38-0.3-2.53-0.9-3.47C54.66,24.41,53.92,23.74,53.02,23.32z M83.92,12.18v2.18h-3.36v5.14h3.36
	v15.43h5.54V19.5h4.94v-5.14h-4.94v-1.39c0-0.6,0.18-1.08,0.53-1.44c0.35-0.35,0.83-0.53,1.44-0.53h2.97V6.06h-3.96
	C86.09,6.06,83.92,8.1,83.92,12.18z M68.79,13.64c-5.64,0-10.22,4.59-10.22,10.23v1.2c0,5.64,4.59,10.23,10.22,10.23
	c5.64,0,10.22-4.59,10.22-10.23v-1.2C79.01,18.23,74.42,13.64,68.79,13.64z M73.47,25.07c0,2.58-2.1,4.69-4.68,4.69
	c-2.58,0-4.68-2.1-4.68-4.69v-1.2c0-2.59,2.1-4.69,4.68-4.69c2.58,0,4.68,2.1,4.68,4.69V25.07z M29.69,25.35
	c0,2.42-1.97,4.4-4.39,4.4s-4.39-1.97-4.39-4.4V14.36h-5.54v10.99c0,5.48,4.45,9.94,9.93,9.94s9.93-4.46,9.93-9.94V14.36h-5.54
	V25.35z M105.29,8.53h-5.53v5.76l-0.01,0.07h-3.36v5.14h3.36v9.31c0,4.08,2.17,6.12,6.52,6.12h3.96v-5.14h-2.97
	c-0.61,0-1.08-0.19-1.44-0.56c-0.35-0.37-0.53-0.85-0.53-1.43V19.5h4.94v-5.14h-4.94V8.53z M3.81,0C1.71,0,0,1.71,0,3.82
	c0,2.11,1.71,3.82,3.81,3.82c2.11,0,3.81-1.71,3.81-3.82C7.63,1.71,5.92,0,3.81,0z M3.81,14.36C1.71,14.36,0,16.07,0,18.18
	c0,2.11,1.71,3.82,3.81,3.82c2.11,0,3.81-1.71,3.81-3.82C7.63,16.07,5.92,14.36,3.81,14.36z"/>
<polygon class="st0" points="134.07,31.4 133.46,31.4 133.41,31.2 128.79,14.37 125.76,14.37 121.11,31.4 120.5,31.4 120.44,31.2 
	115.83,14.37 113.34,14.37 119.07,34.92 122.51,34.92 126.97,18.5 127.6,18.5 132.05,34.92 135.48,34.92 141.21,14.37 138.74,14.37 
	"/>
<path class="st0" d="M157.77,15.94L157.77,15.94c-1.39-1.31-3.33-1.97-5.75-1.97c-1.98,0-3.68,0.5-5.06,1.48
	c-1.28,0.91-2.19,2.21-2.68,3.87h2.68c0.75-2.02,2.45-3.05,5.06-3.05c1.58,0,2.88,0.45,3.85,1.35c0.98,0.9,1.48,2.1,1.48,3.58v1.7
	h-6.15c-2.37,0-4.26,0.59-5.61,1.77c-1.34,1.16-2.02,2.66-2.02,4.46c0,1.77,0.65,3.27,1.92,4.44c1.28,1.17,3,1.77,5.11,1.77
	c1.44,0,2.74-0.33,3.87-0.98c1.13-0.65,1.93-1.36,2.36-2.12l0.51-0.88v3.58h2.51V21.19C159.86,19,159.16,17.24,157.77,15.94z
	 M157.36,26.87c0,1.75-0.62,3.23-1.83,4.4v0c-1.21,1.17-2.87,1.76-4.91,1.76c-1.38,0-2.49-0.36-3.3-1.06
	c-0.82-0.71-1.23-1.67-1.23-2.86c0-1.22,0.45-2.19,1.33-2.9c0.86-0.69,2.14-1.04,3.79-1.04h6.15V26.87z"/>
<path class="st0" d="M168.32,17.07l-0.5,0.84v-3.54h-2.51v20.55h2.51l0-12.71c0-1.59,0.58-2.92,1.71-3.97
	c1.13-1.05,2.56-1.58,4.24-1.58h1.95v-2.29h-1.95C171.19,14.37,169.41,15.25,168.32,17.07z"/>
<path class="st0" d="M195.85,24.65c0-0.93-0.07-1.82-0.21-2.65c-0.22-1.36-0.53-2.19-0.75-2.66c-0.23-0.48-0.93-1.95-2.01-2.98
	c-0.62-0.59-1.36-1.1-2.22-1.51c-1.22-0.59-2.59-0.88-4.09-0.88c-2.72,0-4.96,0.94-6.67,2.78c-1.71,1.85-2.58,4.51-2.58,7.89
	c0,3.38,0.88,6.03,2.61,7.89c1.73,1.85,4.03,2.79,6.86,2.79c1.99,0,3.75-0.5,5.22-1.47c1.37-0.91,2.41-2.2,3.09-3.85h-2.7
	c-1.26,2.01-3.15,3.03-5.61,3.03c-1.97,0-3.61-0.66-4.89-1.97c-1.27-1.3-1.97-3.19-2.08-5.59l-0.01-0.28l16.01,0
	C195.85,25,195.85,24.83,195.85,24.65z M179.82,23.08l0.03-0.3c0.19-2.04,0.91-3.65,2.14-4.8c1.23-1.14,2.79-1.73,4.61-1.73
	c1.82,0,3.37,0.58,4.61,1.73c1.23,1.14,1.95,2.76,2.14,4.8l0.03,0.3H179.82z"/>
<path class="st0" d="M18.16,7.63c2.11,0,3.81-1.71,3.81-3.82c0-2.11-1.71-3.82-3.81-3.82c-2.11,0-3.81,1.71-3.81,3.82
	C14.35,5.92,16.06,7.63,18.16,7.63z"/>
</svg>
